HIERARCHY
ROOT Hips
{
	OFFSET -0.001795 -0.223333 0.028219
	CHANNELS 6 Xposition Yposition Zposition Zrotation Yrotation Xrotation
	JOINT LeftUpLeg
	{
		OFFSET 0.069520 -0.091406 -0.006815
		CHANNELS 3 Zrotation Yrotation Xrotation
		JOINT LeftLeg
		{
			OFFSET 0.034277 -0.375199 -0.004496
			CHANNELS 3 Zrotation Yrotation Xrotation
			JOINT LeftFoot
			{
				OFFSET -0.013596 -0.397961 -0.043693
				CHANNELS 3 Zrotation Yrotation Xrotation
				JOINT LeftToe
				{
					OFFSET 0.026358 -0.055791 0.119288
					CHANNELS 3 Zrotation Yrotation Xrotation
					End Site
					{
						OFFSET 0.000000 0.000000 0.000000
					}
				}
			}
		}
	}
	JOINT RightUpLeg
	{
		OFFSET -0.067670 -0.090522 -0.004320
		CHANNELS 3 Zrotation Yrotation Xrotation
		JOINT RightLeg
		{
			OFFSET -0.038290 -0.382569 -0.008850
			CHANNELS 3 Zrotation Yrotation Xrotation
			JOINT RightFoot
			{
				OFFSET 0.015774 -0.398415 -0.042312
				CHANNELS 3 Zrotation Yrotation Xrotation
				JOINT RightToe
				{
					OFFSET -0.025372 -0.048144 0.123348
					CHANNELS 3 Zrotation Yrotation Xrotation
					End Site
					{
						OFFSET 0.000000 0.000000 0.000000
					}
				}
			}
		}
	}
	JOINT Spine
	{
		OFFSET -0.002533 0.108963 -0.026696
		CHANNELS 3 Zrotation Yrotation Xrotation
		JOINT Spine1
		{
			OFFSET 0.005487 0.135180 0.001092
			CHANNELS 3 Zrotation Yrotation Xrotation
			JOINT Spine2
			{
				OFFSET 0.001457 0.052922 0.025425
				CHANNELS 3 Zrotation Yrotation Xrotation
				JOINT Neck
				{
					OFFSET -0.002778 0.213870 -0.042857
					CHANNELS 3 Zrotation Yrotation Xrotation
					JOINT Head
					{
						OFFSET 0.005152 0.064970 0.051349
						CHANNELS 3 Zrotation Yrotation Xrotation
						End Site
						{
							OFFSET 0.000000 0.000000 0.000000
						}
					}
				}
				JOINT LeftShoulder
				{
					OFFSET 0.078845 0.121749 -0.034090
					CHANNELS 3 Zrotation Yrotation Xrotation
					JOINT LeftArm
					{
						OFFSET 0.090977 0.030469 -0.008868
						CHANNELS 3 Zrotation Yrotation Xrotation
						JOINT LeftForeArm
						{
							OFFSET 0.259612 -0.012772 -0.027456
							CHANNELS 3 Zrotation Yrotation Xrotation
							JOINT LeftHand
							{
								OFFSET 0.249234 0.008986 -0.001171
								CHANNELS 3 Zrotation Yrotation Xrotation
								End Site
								{
									OFFSET 0.000000 0.000000 0.000000
								}
							}
						}
					}
				}
				JOINT RightShoulder
				{
					OFFSET -0.081759 0.118833 -0.038615
					CHANNELS 3 Zrotation Yrotation Xrotation
					JOINT RightArm
					{
						OFFSET -0.096012 0.032551 -0.009143
						CHANNELS 3 Zrotation Yrotation Xrotation
						JOINT RightForeArm
						{
							OFFSET -0.253742 -0.013329 -0.021401
							CHANNELS 3 Zrotation Yrotation Xrotation
							JOINT RightHand
							{
								OFFSET -0.255298 0.007772 -0.005559
								CHANNELS 3 Zrotation Yrotation Xrotation
								End Site
								{
									OFFSET 0.000000 0.000000 0.000000
								}
							}
						}
					}
				}
			}
		}
	}
}
MOTION
Frames: 8
Frame Time: 0.050000
0.305747 0.290329 -0.341440 -31.054766 -35.706459 -35.047599 16.145142 13.239780 -54.220138 -6.323974 26.627143 149.409895 10.714683 32.570332 -25.174464 0.000000 0.000000 0.000000 -22.883938 4.511061 -66.246534 62.804501 -37.977517 63.994703 -35.444877 -57.846708 17.866165 0.000000 0.000000 0.000000 -24.402532 8.755922 35.639283 -2.170116 0.492593 -3.155536 7.016641 18.853922 12.653381 5.112355 -4.840715 3.552364 0.000000 0.000000 0.000000 -14.968134 -21.198340 7.153197 -41.533057 -3.181969 -4.016863 18.900777 -37.392505 -5.699879 0.000000 0.000000 0.000000 5.909043 10.365649 3.901301 33.912655 0.586484 -3.656657 -122.864356 74.384704 -99.905909 0.000000 0.000000 0.000000
0.339962 0.270887 -0.376758 -28.659332 -39.314979 -40.268409 15.226991 14.414046 -55.039354 -6.248469 27.275601 149.097562 10.562649 32.597607 -24.951427 0.000000 0.000000 0.000000 -22.701017 6.195213 -67.363215 69.087059 -39.439078 60.119039 -41.027903 -57.292305 28.508297 0.000000 0.000000 0.000000 -20.326163 7.089234 34.791653 -6.895552 4.175932 3.129861 6.352713 21.158121 6.146850 8.372707 -10.097567 9.769726 0.000000 0.000000 0.000000 -17.841972 -22.264115 6.614299 -40.766470 4.092921 -5.254945 14.894353 -39.048683 -4.998000 0.000000 0.000000 0.000000 9.532610 8.033961 3.564328 29.851869 5.877559 -1.909937 -127.905582 69.348248 -99.456012 0.000000 0.000000 0.000000
0.375517 0.252812 -0.412672 -25.228766 -39.312464 -45.726609 11.684303 12.350007 -57.189864 -7.941253 32.734667 144.792005 11.152611 37.493719 -25.048061 0.000000 0.000000 0.000000 -20.665338 7.340937 -67.887331 61.128256 -37.503604 66.707491 -35.457868 -50.817838 30.014602 0.000000 0.000000 0.000000 -20.936040 7.096675 35.496804 -7.901625 5.145413 3.828146 8.510481 22.886641 5.120525 10.246556 -13.203848 11.842264 0.000000 0.000000 0.000000 -20.574821 -20.165150 4.374911 -39.834506 11.586942 -6.929889 11.306084 -45.728117 -4.973947 0.000000 0.000000 0.000000 12.367937 7.769449 4.139005 26.261920 6.610409 -1.671456 -128.827130 70.414328 -101.421231 0.000000 0.000000 0.000000
0.411457 0.236963 -0.448795 -24.194145 -38.927591 -50.029624 7.402487 9.449625 -60.373097 -9.708686 37.001142 141.591294 13.353042 45.145034 -16.955488 0.000000 0.000000 0.000000 -18.793771 7.926297 -67.847229 53.216867 -34.512396 72.280032 -28.077693 -40.612561 36.314377 0.000000 0.000000 0.000000 -20.311901 6.533571 36.750883 -6.434804 5.330704 7.824111 7.833724 24.343076 0.323089 10.069650 -17.330625 19.524756 0.000000 0.000000 0.000000 -25.006176 -18.735325 0.697300 -35.086585 17.851613 -6.255386 4.385966 -49.902747 -3.235116 0.000000 0.000000 0.000000 15.904154 6.406731 4.815550 23.704737 7.336649 -1.349674 -126.832388 73.755051 -101.953552 0.000000 0.000000 0.000000
0.445840 0.217606 -0.482747 -19.296249 -39.462115 -57.685643 7.032626 9.122971 -58.732609 -15.773056 46.218460 131.904795 14.412549 57.575662 -23.517590 0.000000 0.000000 0.000000 -11.175520 11.333228 -62.553900 40.937222 -23.639528 76.086884 -24.859095 -36.512579 40.222711 0.000000 0.000000 0.000000 -19.800897 5.724254 36.613943 -6.683876 9.389679 16.249550 4.045596 22.775904 -11.553823 7.930986 -19.365273 28.394457 0.000000 0.000000 0.000000 -23.767183 -17.126682 -2.565744 -35.309351 24.819669 -6.195776 -2.934206 -56.961777 -2.092711 0.000000 0.000000 0.000000 23.881873 4.841700 6.396080 17.012545 2.257428 -1.020095 -112.650194 77.699389 -91.340531 0.000000 0.000000 0.000000
0.476434 0.200334 -0.512645 -16.203378 -38.339822 -63.490673 4.695697 7.311502 -60.391746 -17.844130 48.128377 129.192657 18.371123 58.502213 -12.240371 0.000000 0.000000 0.000000 -4.943513 12.770866 -56.844588 30.700289 -14.046362 75.087903 -19.629957 -32.557449 35.789610 0.000000 0.000000 0.000000 -21.559664 5.074004 37.360528 1.088457 6.935110 28.887937 -7.188750 21.910244 -28.950632 -0.196282 -20.096869 39.457215 0.000000 0.000000 0.000000 -21.838358 -13.429946 -7.574465 -29.989628 28.837681 -3.148834 -15.705535 -63.123319 3.572567 0.000000 0.000000 0.000000 27.554943 2.747081 11.741536 15.122524 1.619494 0.180919 -77.157549 76.520303 -51.949714 0.000000 0.000000 0.000000
0.502475 0.186302 -0.537179 -11.938856 -36.693742 -70.889050 3.749326 5.806042 -59.019936 -18.803825 46.616828 125.080980 20.126543 62.358389 -14.066532 0.000000 0.000000 0.000000 1.781199 12.825790 -47.397110 17.597916 -2.374579 68.744043 -12.159858 -25.259098 30.175739 0.000000 0.000000 0.000000 -19.254775 2.043672 33.890193 8.004969 14.417939 55.772520 -11.836899 5.738921 -50.613888 -3.478674 -15.464475 42.094537 0.000000 0.000000 0.000000 -13.467228 -9.500778 -2.711406 -40.628728 24.539528 -4.653457 -14.735729 -74.690761 4.101292 0.000000 0.000000 0.000000 21.525291 2.233897 6.385554 18.769634 -2.233116 0.707408 -41.515187 80.574000 -18.460318 0.000000 0.000000 0.000000
0.522943 0.171206 -0.556063 -9.270939 -35.538048 -76.541552 2.219538 4.651597 -60.806109 -19.164667 45.897087 123.793140 29.205590 60.549013 8.381496 0.000000 0.000000 0.000000 6.214187 12.164251 -39.682342 5.502249 5.888953 61.120497 -4.642184 -16.259608 27.063555 0.000000 0.000000 0.000000 -15.800106 -0.091315 31.286840 16.482755 3.766226 84.630102 -22.722208 -9.001394 -69.070138 0.537359 -16.170293 32.829422 0.000000 0.000000 0.000000 -4.070652 -4.441556 2.032073 -49.355751 11.554928 -3.318519 -9.717206 -79.382431 0.789692 0.000000 0.000000 0.000000 13.998207 0.320230 2.456747 26.286635 0.559458 1.511914 -35.154133 74.923282 -8.905469 0.000000 0.000000 0.000000
